<svg width="233" height="44" viewBox="0 0 233 44" fill="none" xmlns="http://www.w3.org/2000/svg">
    <g clip-path="url(#clip0_656_249)">
        <path d="M54.3037 43V-0.400003H64.2857L82.3897 32.522H82.6377V-0.400003H90.5737V43H80.5917L62.4877 10.078H62.2397V43H54.3037ZM114.979 43.744C111.879 43.744 109.13 43.0827 106.733 41.76C104.377 40.396 102.517 38.4947 101.153 36.056C99.8302 33.6173 99.1689 30.8067 99.1689 27.624C99.1689 24.3587 99.8302 21.486 101.153 19.006C102.476 16.526 104.315 14.5833 106.671 13.178C109.068 11.7313 111.858 11.008 115.041 11.008C118.141 11.008 120.828 11.69 123.101 13.054C125.416 14.418 127.193 16.2573 128.433 18.572C129.714 20.8453 130.355 23.4493 130.355 26.384C130.355 26.7973 130.334 27.252 130.293 27.748C130.293 28.244 130.272 28.7607 130.231 29.298H104.811V24.338H122.357C122.233 22.23 121.489 20.556 120.125 19.316C118.761 18.076 117.066 17.456 115.041 17.456C113.553 17.456 112.189 17.8073 110.949 18.51C109.709 19.1713 108.717 20.184 107.973 21.548C107.27 22.8707 106.919 24.5653 106.919 26.632V28.43C106.919 30.2487 107.27 31.8193 107.973 33.142C108.676 34.4647 109.626 35.4773 110.825 36.18C112.024 36.8827 113.388 37.234 114.917 37.234C116.57 37.234 117.934 36.9033 119.009 36.242C120.084 35.5393 120.89 34.6093 121.427 33.452H129.425C128.846 35.3947 127.875 37.1513 126.511 38.722C125.188 40.2513 123.556 41.4707 121.613 42.38C119.67 43.2893 117.459 43.744 114.979 43.744ZM131.812 43L142.972 27.376L131.812 11.752H140.368L147.994 22.788L155.682 11.752H164.176L153.016 27.376L164.176 43H155.682L147.994 31.902L140.368 43H131.812ZM180.765 43.744C178.244 43.744 176.074 43.2273 174.255 42.194C172.478 41.1607 171.114 39.6313 170.163 37.606C169.213 35.5393 168.737 32.9973 168.737 29.98V11.752H176.611V29.174C176.611 31.778 177.169 33.7413 178.285 35.064C179.401 36.3867 181.075 37.048 183.307 37.048C184.754 37.048 186.035 36.7173 187.151 36.056C188.309 35.3947 189.197 34.4233 189.817 33.142C190.479 31.8607 190.809 30.29 190.809 28.43V11.752H198.745V43H191.739L191.181 37.854C190.231 39.6727 188.867 41.1193 187.089 42.194C185.312 43.2273 183.204 43.744 180.765 43.744ZM219.289 43.744C216.478 43.744 214.04 43.2893 211.973 42.38C209.906 41.4707 208.274 40.2307 207.075 38.66C205.876 37.048 205.174 35.2087 204.967 33.142H212.903C213.068 33.9687 213.42 34.7333 213.957 35.436C214.494 36.0973 215.197 36.6347 216.065 37.048C216.933 37.42 217.966 37.606 219.165 37.606C220.364 37.606 221.335 37.4407 222.079 37.11C222.823 36.7793 223.381 36.3453 223.753 35.808C224.125 35.2707 224.311 34.6713 224.311 34.01C224.311 33.1007 224.042 32.398 223.505 31.902C223.009 31.406 222.265 31.0133 221.273 30.724C220.281 30.3933 219.082 30.0833 217.677 29.794C216.23 29.5047 214.804 29.1533 213.399 28.74C211.994 28.2853 210.733 27.7273 209.617 27.066C208.501 26.4047 207.612 25.5573 206.951 24.524C206.29 23.4907 205.959 22.2093 205.959 20.68C205.959 18.8613 206.455 17.2287 207.447 15.782C208.439 14.294 209.865 13.1367 211.725 12.31C213.626 11.442 215.879 11.008 218.483 11.008C222.162 11.008 225.096 11.8553 227.287 13.55C229.478 15.2447 230.759 17.58 231.131 20.556H223.691C223.484 19.4813 222.926 18.6547 222.017 18.076C221.108 17.456 219.909 17.146 218.421 17.146C216.892 17.146 215.714 17.4353 214.887 18.014C214.06 18.5927 213.647 19.3367 213.647 20.246C213.647 20.866 213.895 21.424 214.391 21.92C214.928 22.3747 215.672 22.788 216.623 23.16C217.615 23.4907 218.814 23.8007 220.219 24.09C222.575 24.5447 224.642 25.1027 226.419 25.764C228.238 26.384 229.664 27.2933 230.697 28.492C231.73 29.6493 232.247 31.344 232.247 33.576C232.288 35.56 231.772 37.3167 230.697 38.846C229.622 40.3753 228.114 41.574 226.171 42.442C224.228 43.31 221.934 43.744 219.289 43.744Z" fill="url(#paint0_linear_656_249)"/>
        <g clip-path="url(#clip1_656_249)">
            <path d="M12.7297 29.1088C15.9028 26.4463 20.6335 26.8602 23.296 30.0333C25.9585 33.2063 25.5446 37.937 22.3716 40.5995C19.1985 43.262 14.4678 42.8481 11.8053 39.6751C9.1428 36.502 9.55668 31.7714 12.7297 29.1088Z" fill="#61F4FF" fill-opacity="0.25" stroke="#61C5FF" stroke-width="3.25" stroke-linecap="round" stroke-linejoin="round"/>
            <path d="M35.5527 19.7487L23.2959 30.0332" stroke="#61C5FF" stroke-width="3.25" stroke-linecap="round" stroke-linejoin="round"/>
            <path d="M15.3311 3.42839C12.1581 6.0909 11.7442 10.8216 14.4067 13.9946C17.0692 17.1677 21.7999 17.5816 24.9729 14.9191C28.146 12.2565 28.5599 7.52587 25.8974 4.35281C23.2348 1.17975 18.5042 0.765873 15.3311 3.42839Z" fill="#61F4FF" fill-opacity="0.25" stroke="#61F4FF" stroke-width="3.25" stroke-linecap="round" stroke-linejoin="round"/>
            <path d="M2.15009 24.2793L14.4067 13.9946" stroke="#61F4FF" stroke-width="3.25" stroke-linecap="round" stroke-linejoin="round"/>
        </g>
    </g>
    <defs>
        <linearGradient id="paint0_linear_656_249" x1="51.5137" y1="-1.59929" x2="235.884" y2="43.0696" gradientUnits="userSpaceOnUse">
            <stop stop-color="#61F4FF"/>
            <stop offset="0.995417" stop-color="#61C5FF"/>
        </linearGradient>
        <clipPath id="clip0_656_249">
            <rect width="233" height="44" fill="white"/>
        </clipPath>
        <clipPath id="clip1_656_249">
            <rect width="64.5597" height="65.0528" fill="white" transform="translate(-26.7571 17.2483) rotate(-40)"/>
        </clipPath>
    </defs>
</svg>
