<svg xmlns="http://www.w3.org/2000/svg" width="214" height="198" viewBox="0 0 214 198" fill="none">
    <path fill-rule="evenodd" clip-rule="evenodd"
          d="M167.197 104.554C141.533 104.554 120.729 125.359 120.729 151.024C120.729 176.688 141.533 197.493 167.197 197.493C192.861 197.493 213.665 176.688 213.665 151.024C213.665 125.359 192.861 104.554 167.197 104.554V104.554ZM46.4683 104.558C20.8048 104.558 0 125.359 0 151.024C0 176.688 20.8048 197.493 46.4683 197.493C72.1329 197.493 92.9387 176.688 92.9387 151.024C92.9387 125.359 72.1329 104.558 46.4683 104.558V104.558ZM153.3 46.4673C153.3 72.1329 132.496 92.9398 106.833 92.9398C81.1681 92.9398 60.3643 72.1329 60.3643 46.4673C60.3643 20.8068 81.1681 0 106.833 0C132.496 0 153.3 20.8068 153.3 46.4673V46.4673Z"
          fill="#F06A6A"/>
</svg>
