<svg xmlns="http://www.w3.org/2000/svg" version="1.1" xmlns:xlink="http://www.w3.org/1999/xlink" xmlns:svgjs="http://svgjs.dev/svgjs" viewBox="0 0 800 400"><path d="M15.695067405700684,371.3004455566406C18.23617347081502,367.2645721435547,25.41106081008911,354.4095713297526,30.94170379638672,347.085205078125C36.472346782684326,339.7608388264974,41.25560633341471,334.5291341145833,48.87892532348633,327.354248046875C56.502244313557945,320.1793619791667,66.06876309712727,311.8086802164714,76.6816177368164,304.035888671875C87.29447237650554,296.2630971272786,101.19581476847331,288.0418650309245,112.5560531616211,280.7174987792969C123.91629155476888,273.39313252766925,132.73542404174805,266.9656270345052,144.84304809570312,260.0896911621094C156.9506721496582,253.21375528971353,171.1509755452474,246.18834177652994,185.20179748535156,239.46188354492188C199.25261942545572,232.7354253133138,215.54559071858725,225.41106160481772,229.14797973632812,219.73094177246094C242.750368754069,214.05082194010416,254.8579864501953,210.31389872233072,266.8161315917969,205.38116455078125C278.77427673339844,200.44843037923178,289.3871307373047,195.36622619628906,300.8968505859375,190.13453674316406C312.4065704345703,184.90284729003906,322.7204895019531,179.67114766438803,335.87445068359375,173.99102783203125C349.0284118652344,168.31090799967447,366.0687510172526,161.73393758138022,379.82061767578125,156.05381774902344C393.5724843343099,150.37369791666666,405.08220926920575,144.69356791178384,418.3856506347656,139.91030883789062C431.6890920003255,135.1270497639974,447.68312072753906,131.68909072875977,459.6412658691406,127.35426330566406C471.5994110107422,123.01943588256836,479.52167256673175,118.23617299397786,490.134521484375,113.9013442993164C500.74737040201825,109.56651560465495,512.1075948079427,105.53064219156902,523.318359375,101.34529113769531C534.5291239420573,97.15994008382161,545.1420084635416,92.8251126607259,557.3991088867188,88.78923797607422C569.6562093098959,84.75336329142253,585.3512471516927,81.0164400736491,596.8609619140625,77.13004302978516C608.3706766764323,73.24364598592122,615.3961079915365,69.50672976175944,626.4573974609375,65.47085571289062C637.5186869303385,61.43498166402181,651.8684590657552,56.65172004699707,663.2286987304688,52.914798736572266C674.5889383951823,49.17787742614746,683.70703125,46.487295150756836,694.6188354492188,43.0493278503418C705.5306396484375,39.61136054992676,717.0403340657552,36.47234630584717,728.6995239257812,32.28699493408203C740.3587137858073,28.101643562316895,758.5948994954427,20.328848838806152,764.573974609375,17.937219619750977" fill="none" stroke-width="15" stroke="url(&quot;#SvgjsLinearGradient1005&quot;)" stroke-linecap="round" transform="matrix(1,0.35265396141692995,0,1,-5.684341886080802e-14,-137.58248415064622)"></path><defs><linearGradient id="SvgjsLinearGradient1005" gradientTransform="rotate(208, 0.5, 0.5)"><stop stop-color="hsl(227, 61%, 68%)" offset="0"></stop><stop stop-color="hsl(265, 70%, 60%)" offset="1"></stop></linearGradient></defs></svg>