<svg width="424" height="283" viewBox="0 0 424 283" fill="none" xmlns="http://www.w3.org/2000/svg">
    <g clip-path="url(#clip0_536_150)">
        <path d="M237.44 282.667H394.32C399.326 282.667 404.118 280.908 408.453 278.427C412.789 275.946 417.258 272.831 419.76 268.533C422.262 264.236 424.002 259.36 424 254.399C423.998 249.437 422.266 244.563 419.76 240.268L313.76 57.947C311.258 53.65 308.201 50.534 303.867 48.053C299.532 45.573 293.325 43.813 288.32 43.813C283.315 43.813 278.521 45.573 274.187 48.053C269.852 50.534 266.795 53.65 264.293 57.947L237.44 104.587L183.733 14.13C181.229 9.834 178.176 5.307 173.84 2.827C169.504 0.346004 164.713 0 159.707 0C154.701 0 149.909 0.346004 145.573 2.827C141.238 5.307 136.771 9.834 134.267 14.13L2.82671 240.268C0.320809 244.563 0.00221097 249.437 1.09654e-05 254.399C-0.00218903 259.36 0.324609 264.235 2.82671 268.533C5.32881 272.83 9.79791 275.946 14.1333 278.427C18.4688 280.908 23.2603 282.667 28.2667 282.667H127.2C166.401 282.667 194.934 265.082 214.827 231.787L262.88 148.4L288.32 104.587L366.053 237.44H262.88L237.44 282.667ZM125.787 237.44H56.533L159.707 59.36L212 148.4L177.361 208.784C164.151 230.387 149.089 237.44 125.787 237.44Z" fill="#00DC82"/>
    </g>
    <defs>
        <clipPath id="clip0_536_150">
            <rect width="424" height="283" fill="white"/>
        </clipPath>
    </defs>
</svg>
