<svg width="1013" height="256" viewBox="0 0 1013 256" fill="none" xmlns="http://www.w3.org/2000/svg">
    <path d="M474.76 211.784C463.005 211.784 452.488 209.773 443.208 205.752C433.928 201.731 426.581 195.853 421.168 188.12C415.909 180.387 413.125 171.029 412.816 160.048H447.384C447.539 164.688 448.699 168.864 450.864 172.576C453.184 176.288 456.355 179.227 460.376 181.392C464.397 183.557 469.115 184.64 474.528 184.64C479.168 184.64 483.267 183.944 486.824 182.552C490.381 181.005 493.088 178.84 494.944 176.056C496.955 173.117 497.96 169.637 497.96 165.616C497.96 161.131 496.8 157.341 494.48 154.248C492.315 151.155 489.221 148.603 485.2 146.592C481.333 144.427 476.848 142.493 471.744 140.792C466.64 138.936 461.304 137.08 455.736 135.224C443.053 130.893 433.309 125.248 426.504 118.288C419.699 111.328 416.296 102.048 416.296 90.448C416.296 80.704 418.693 72.352 423.488 65.392C428.283 58.432 434.856 53.096 443.208 49.384C451.56 45.672 461.149 43.816 471.976 43.816C482.957 43.816 492.624 45.7493 500.976 49.616C509.328 53.328 515.901 58.7413 520.696 65.856C525.645 72.9707 528.275 81.4 528.584 91.144H493.784C493.629 87.432 492.624 84.1067 490.768 81.168C488.912 78.0747 486.283 75.6 482.88 73.744C479.632 71.888 475.843 70.96 471.512 70.96C467.491 70.8053 463.933 71.424 460.84 72.816C457.747 74.0533 455.272 75.9867 453.416 78.616C451.56 81.0907 450.632 84.3387 450.632 88.36C450.632 92.072 451.483 95.2427 453.184 97.872C455.04 100.347 457.592 102.512 460.84 104.368C464.243 106.224 468.187 108.003 472.672 109.704C477.157 111.405 482.107 113.107 487.52 114.808C495.563 117.592 502.987 120.917 509.792 124.784C516.752 128.496 522.243 133.368 526.264 139.4C530.44 145.432 532.528 153.397 532.528 163.296C532.528 171.957 530.285 180 525.8 187.424C521.315 194.693 514.819 200.571 506.312 205.056C497.805 209.541 487.288 211.784 474.76 211.784ZM612.283 211.784C600.374 211.784 589.779 209.232 580.499 204.128C571.374 198.869 564.259 191.755 559.155 182.784C554.051 173.659 551.499 163.219 551.499 151.464C551.499 139.709 554.051 129.347 559.155 120.376C564.414 111.251 571.606 104.136 580.731 99.032C589.857 93.7733 600.374 91.144 612.283 91.144C627.286 91.144 639.891 95.088 650.099 102.976C660.462 110.709 667.035 121.459 669.819 135.224H635.251C633.859 130.12 631.075 126.099 626.899 123.16C622.723 120.221 617.774 118.752 612.051 118.752C606.793 118.752 602.075 120.067 597.899 122.696C593.878 125.325 590.63 129.115 588.155 134.064C585.835 138.859 584.675 144.659 584.675 151.464C584.675 156.568 585.371 161.131 586.763 165.152C588.155 169.019 590.089 172.421 592.563 175.36C595.038 178.144 597.899 180.309 601.147 181.856C604.55 183.403 608.185 184.176 612.051 184.176C615.918 184.176 619.398 183.557 622.491 182.32C625.585 180.928 628.291 178.995 630.611 176.52C632.931 174.045 634.478 171.107 635.251 167.704H669.819C667.035 181.16 660.462 191.909 650.099 199.952C639.891 207.84 627.286 211.784 612.283 211.784ZM732.391 211.784C722.801 211.784 714.836 210.237 708.495 207.144C702.308 204.051 697.668 199.875 694.575 194.616C691.636 189.357 690.167 183.557 690.167 177.216C690.167 170.256 691.945 164.069 695.503 158.656C699.215 153.243 704.705 149.067 711.975 146.128C719.399 143.035 728.833 141.488 740.279 141.488H769.047C769.047 135.92 768.273 131.435 766.727 128.032C765.18 124.475 762.783 121.845 759.535 120.144C756.287 118.288 752.188 117.36 747.239 117.36C741.361 117.36 736.335 118.675 732.159 121.304C727.983 123.779 725.431 127.645 724.503 132.904H693.183C693.956 124.397 696.74 117.051 701.535 110.864C706.329 104.677 712.671 99.8827 720.559 96.48C728.447 92.9227 737.34 91.144 747.239 91.144C758.375 91.144 767.964 93 776.007 96.712C784.049 100.269 790.313 105.528 794.799 112.488C799.284 119.448 801.527 128.032 801.527 138.24V209H774.383L770.671 191.368H770.439C768.583 194.461 766.417 197.245 763.943 199.72C761.468 202.195 758.607 204.36 755.359 206.216C752.265 208.072 748.785 209.464 744.919 210.392C741.207 211.32 737.031 211.784 732.391 211.784ZM741.207 186.728C745.228 186.728 748.708 186.109 751.647 184.872C754.74 183.48 757.369 181.624 759.535 179.304C761.855 176.829 763.633 174.045 764.871 170.952C766.263 167.859 767.191 164.533 767.655 160.976H743.991C739.505 160.976 735.793 161.595 732.855 162.832C729.916 163.915 727.751 165.461 726.359 167.472C725.121 169.483 724.503 171.725 724.503 174.2C724.503 176.984 725.199 179.304 726.591 181.16C727.983 183.016 729.916 184.408 732.391 185.336C734.865 186.264 737.804 186.728 741.207 186.728ZM827.318 209V43.12H859.798V209H827.318ZM942.574 211.784C931.592 211.784 921.616 209.232 912.646 204.128C903.675 198.869 896.56 191.755 891.302 182.784C886.043 173.659 883.414 163.219 883.414 151.464C883.414 139.709 886.043 129.269 891.302 120.144C896.56 111.019 903.675 103.904 912.646 98.8C921.616 93.696 931.67 91.144 942.806 91.144C953.942 91.144 963.995 93.696 972.966 98.8C981.936 103.904 989.051 111.019 994.31 120.144C999.568 129.115 1002.2 139.555 1002.2 151.464C1002.2 163.219 999.568 173.659 994.31 182.784C989.051 191.755 981.936 198.869 972.966 204.128C963.995 209.232 953.864 211.784 942.574 211.784ZM942.574 183.944C947.523 183.944 951.931 182.784 955.798 180.464C959.819 177.989 962.99 174.355 965.31 169.56C967.784 164.611 969.022 158.579 969.022 151.464C969.022 144.195 967.784 138.163 965.31 133.368C962.99 128.573 959.819 125.016 955.798 122.696C951.931 120.221 947.6 118.984 942.806 118.984C938.166 118.984 933.835 120.221 929.814 122.696C925.792 125.016 922.544 128.651 920.07 133.6C917.75 138.395 916.59 144.349 916.59 151.464C916.59 158.579 917.75 164.611 920.07 169.56C922.544 174.355 925.715 177.989 929.582 180.464C933.603 182.784 937.934 183.944 942.574 183.944Z" fill="url(#paint0_linear_298_184)"/>
    <rect y="38" width="324" height="180" rx="36" fill="url(#paint1_linear_298_184)"/>
    <rect x="34" width="256" height="256" rx="40" fill="url(#paint2_linear_298_184)"/>
    <path d="M164 200.4C153.867 200.4 144.8 198.667 136.8 195.2C128.8 191.733 122.467 186.667 117.8 180C113.267 173.333 110.867 165.267 110.6 155.8H140.4C140.533 159.8 141.533 163.4 143.4 166.6C145.4 169.8 148.133 172.333 151.6 174.2C155.067 176.067 159.133 177 163.8 177C167.8 177 171.333 176.4 174.4 175.2C177.467 173.867 179.8 172 181.4 169.6C183.133 167.067 184 164.067 184 160.6C184 156.733 183 153.467 181 150.8C179.133 148.133 176.467 145.933 173 144.2C169.667 142.333 165.8 140.667 161.4 139.2C157 137.6 152.4 136 147.6 134.4C136.667 130.667 128.267 125.8 122.4 119.8C116.533 113.8 113.6 105.8 113.6 95.8C113.6 87.4 115.667 80.2 119.8 74.2C123.933 68.2 129.6 63.6 136.8 60.4C144 57.2 152.267 55.6 161.6 55.6C171.067 55.6 179.4 57.2667 186.6 60.6C193.8 63.8 199.467 68.4667 203.6 74.6C207.867 80.7333 210.133 88 210.4 96.4H180.4C180.267 93.2 179.4 90.3333 177.8 87.8C176.2 85.1333 173.933 83 171 81.4C168.2 79.8 164.933 79 161.2 79C157.733 78.8667 154.667 79.4 152 80.6C149.333 81.6667 147.2 83.3333 145.6 85.6C144 87.7333 143.2 90.5333 143.2 94C143.2 97.2 143.933 99.9333 145.4 102.2C147 104.333 149.2 106.2 152 107.8C154.933 109.4 158.333 110.933 162.2 112.4C166.067 113.867 170.333 115.333 175 116.8C181.933 119.2 188.333 122.067 194.2 125.4C200.2 128.6 204.933 132.8 208.4 138C212 143.2 213.8 150.067 213.8 158.6C213.8 166.067 211.867 173 208 179.4C204.133 185.667 198.533 190.733 191.2 194.6C183.867 198.467 174.8 200.4 164 200.4Z" fill="white"/>
    <defs>
        <linearGradient id="paint0_linear_298_184" x1="404" y1="50.0271" x2="1012.75" y2="206.951" gradientUnits="userSpaceOnUse">
            <stop stop-color="#4F7CFF"/>
            <stop offset="1" stop-color="#794FFE"/>
        </linearGradient>
        <linearGradient id="paint1_linear_298_184" x1="6.99999" y1="207.2" x2="292.196" y2="15.4836" gradientUnits="userSpaceOnUse">
            <stop stop-color="#4E7CFF" stop-opacity="0.35"/>
            <stop offset="1" stop-color="#7A4EFE" stop-opacity="0.35"/>
        </linearGradient>
        <linearGradient id="paint2_linear_298_184" x1="48.5" y1="14" x2="270" y2="252" gradientUnits="userSpaceOnUse">
            <stop stop-color="#4E7CFF"/>
            <stop offset="1" stop-color="#7A4EFE"/>
        </linearGradient>
    </defs>
</svg>
