<svg xmlns="http://www.w3.org/2000/svg" version="1.1" xmlns:xlink="http://www.w3.org/1999/xlink" xmlns:svgjs="http://svgjs.dev/svgjs" viewBox="0 0 800 800" opacity="1"><defs><symbol id="bbburst-shape-4" viewBox="0 0 149 143"><path d="M71.647 2.781c.898-2.764 4.808-2.764 5.706 0l15.445 47.534a3 3 0 0 0 2.853 2.073h49.98c2.906 0 4.115 3.719 1.764 5.427L106.96 87.193a2.999 2.999 0 0 0-1.09 3.354l15.445 47.534c.898 2.764-2.266 5.062-4.617 3.354l-40.435-29.378a3 3 0 0 0-3.526 0l-40.435 29.378c-2.351 1.708-5.515-.59-4.617-3.354L43.13 90.547a3 3 0 0 0-1.09-3.354L1.605 57.815c-2.35-1.708-1.142-5.427 1.764-5.427h49.98a3 3 0 0 0 2.853-2.073L71.647 2.781Z"></path></symbol><symbol id="bbburst-shape-6" viewBox="0 0 133 116"><path d="M59.7487 10.2513c-13.6683-13.66839-35.8291-13.66839-49.4974 0-13.66839 13.6683-13.66839 35.8291 0 49.4974l49.4974-49.4974ZM66.5 66.5 41.7513 91.2487 66.5 115.997l24.7487-24.7483L66.5 66.5Zm56.249-6.7513c13.668-13.6683 13.668-35.8291 0-49.4974-13.669-13.66839-35.8294-13.66839-49.4977 0l49.4977 49.4974Zm-112.4977 0 31.5 31.5 49.4974-49.4974-31.5-31.5-49.4974 49.4974Zm80.9974 31.5 31.5003-31.5-49.4977-49.4974-31.5 31.5 49.4974 49.4974Z"></path></symbol><symbol id="bbburst-shape-12" viewBox="0 0 170 151"><path d="M69.3728 54.2122 85 10.0031l15.627 44.2091c1.413 3.9958 5.19 6.6672 9.428 6.6673h49.312l-39.149 26.1447c-3.803 2.5401-5.399 7.3367-3.875 11.6488l15.179 42.94-40.9683-27.36c-3.3621-2.245-7.7453-2.245-11.1074 0l-40.9682 27.36 15.1785-42.94c1.5243-4.3121-.0712-9.1087-3.8746-11.6488L10.6333 60.8795h49.3112c4.2381-.0001 8.0159-2.6715 9.4283-6.6673Z" stroke-width="12"></path></symbol><symbol id="bbburst-shape-14" viewBox="0 0 185 109"><path d="M168 16.5C168 58.1975 134.197 92 92.5 92 50.8025 92 17 58.1975 17 16.5" stroke-width="33" stroke-linecap="round"></path></symbol></defs><use xlink:href="#bbburst-shape-4" width="18.95808468127614" opacity="0.6537616382313607" transform="matrix(0.9974177230331029,-0.07181842228467811,0.07181842228467811,0.9974177230331029,499.68844866751624,74.31178249230459)" fill="#e48ca3"></use><use xlink:href="#bbburst-shape-14" width="19.655499163499705" opacity="0.7373870365629263" transform="matrix(0.7984218915521945,0.6020983998402718,-0.6020983998402718,0.7984218915521945,687.6145005423216,179.5218001903013)" fill="none" stroke="#ffa6d5"></use><use xlink:href="#bbburst-shape-6" width="22.97591094915009" opacity="0.4651103558375185" transform="matrix(0.9215887028195034,-0.38816782818191536,0.38816782818191536,0.9215887028195034,429.97474118692236,-104.13198554825289)" fill="#ff8220"></use><use xlink:href="#bbburst-shape-12" width="28.920389692910312" opacity="0.35336482105186395" transform="matrix(0.9339044249169701,0.3575227616816911,-0.3575227616816911,0.9339044249169701,443.9877999291566,299.34965591907763)" fill="none" stroke="#ff8220"></use><use xlink:href="#bbburst-shape-14" width="12.43300869424444" opacity="0.9757258466280005" transform="matrix(0.7516343080033652,0.6595800687045527,-0.6595800687045527,0.7516343080033652,669.9596126241374,93.69723668116802)" fill="none" stroke="#e48ca3"></use><use xlink:href="#bbburst-shape-6" width="11.988867475476344" opacity="0.767934236100101" transform="matrix(0.7634541588720363,0.6458620187787726,-0.6458620187787726,0.7634541588720363,743.4015174859185,144.3324296591)" fill="#e48ca3"></use><use xlink:href="#bbburst-shape-4" width="18.179265883896043" opacity="0.6842450185200221" transform="matrix(0.962915041378282,0.26980478699878835,-0.26980478699878835,0.962915041378282,641.2429524415858,14.218185694426495)" fill="#e48ca3"></use><use xlink:href="#bbburst-shape-4" width="14.360996232995085" opacity="0.8925950407397282" transform="matrix(0.9035579389271372,0.42846592746885226,-0.42846592746885226,0.9035579389271372,517.0079893108066,42.07348340862876)" fill="#00a19d"></use><use xlink:href="#bbburst-shape-14" width="28.26774621040781" opacity="0.3746212043383327" transform="matrix(0.9998985060241302,0.014247022520951046,-0.014247022520951046,0.9998985060241302,111.42122241668037,26.64423611611062)" fill="none" stroke="#ffa6d5"></use><use xlink:href="#bbburst-shape-14" width="33.717011167965275" opacity="0.43177451324675964" transform="matrix(0.8307758133382911,-0.5566071756383499,0.5566071756383499,0.8307758133382911,251.3744413523359,-162.97153449998973)" fill="none" stroke="#ffa6d5"></use><use xlink:href="#bbburst-shape-14" width="10.092060534539026" opacity="0.9443208163893377" transform="matrix(0.758887930858179,0.6512212438164097,-0.6512212438164097,0.758887930858179,639.587412903536,111.51697536858052)" fill="none" stroke="#00a19d"></use><use xlink:href="#bbburst-shape-14" width="17.776137298651506" opacity="0.6516484719781583" transform="matrix(0.8657282443340276,-0.5005143424142031,0.5005143424142031,0.8657282443340276,87.13081509641762,174.59181065769945)" fill="none" stroke="#00a19d"></use><use xlink:href="#bbburst-shape-6" width="33.64680780053701" opacity="0.5125929276672255" transform="matrix(0.8588899476511721,0.5121601876598443,-0.5121601876598443,0.8588899476511721,371.4466398883725,35.172962260741144)" fill="#ffa6d5"></use><use xlink:href="#bbburst-shape-14" width="10.327209538441348" opacity="0.929065395189421" transform="matrix(0.8426056764574446,-0.5385310334620395,0.5385310334620395,0.8426056764574446,189.48369112154288,96.3043884990355)" fill="none" stroke="#e48ca3"></use><use xlink:href="#bbburst-shape-4" width="20.285747651032274" opacity="0.6087831782436941" transform="matrix(0.862893070956882,0.5053865333530382,-0.5053865333530382,0.862893070956882,751.4730704702013,-27.749441136190455)" fill="#e48ca3"></use><use xlink:href="#bbburst-shape-6" width="43.08352359782388" opacity="0.23520746686059102" transform="matrix(0.9760244089703242,-0.21766109687798915,0.21766109687798915,0.9760244089703242,567.4658228256418,220.4663176983167)" fill="#00a19d"></use><use xlink:href="#bbburst-shape-14" width="20.89467013100096" opacity="0.6259988040828444" transform="matrix(0.9683627387054039,0.24954680179671637,-0.24954680179671637,0.9683627387054039,351.9575208251256,-86.63834996656504)" fill="none" stroke="#ff8220"></use><use xlink:href="#bbburst-shape-6" width="30.204485093972526" opacity="0.5725893580718254" transform="matrix(0.9982555056679204,0.05904189532598339,-0.05904189532598339,0.9982555056679204,599.7835915689798,-20.66005140971083)" fill="#e48ca3"></use><use xlink:href="#bbburst-shape-14" width="17.21268508481048" opacity="0.8153751986008377" transform="matrix(0.9994453120687675,-0.033302675324421285,0.033302675324421285,0.9994453120687675,295.67800608845255,-10.084250644807469)" fill="none" stroke="#e48ca3"></use><use xlink:href="#bbburst-shape-12" width="9.227367413801309" opacity="0.9062170358746302" transform="matrix(0.8473843107004807,-0.5309800655191034,0.5309800655191034,0.8473843107004807,221.21798079481513,44.17769266345448)" fill="none" stroke="#e48ca3"></use><use xlink:href="#bbburst-shape-4" width="24.66992189482469" opacity="0.4777892577513744" transform="matrix(0.9546988690444868,0.2975736370130557,-0.2975736370130557,0.9546988690444868,643.0625270487502,206.24352897363025)" fill="#e48ca3"></use><use xlink:href="#bbburst-shape-6" width="22.88812176767665" opacity="0.6295874673667208" transform="matrix(0.9576233792054166,-0.2880233733557031,0.2880233733557031,0.9576233792054166,245.5074837883532,184.50855061087663)" fill="#e48ca3"></use><use xlink:href="#bbburst-shape-14" width="31.140050405191104" opacity="0.26937472667326534" transform="matrix(0.886782441468834,-0.4621870849586496,0.4621870849586496,0.886782441468834,27.563101927126866,331.62577821740246)" fill="none" stroke="#ffa6d5"></use><use xlink:href="#bbburst-shape-12" width="16.80282201093931" opacity="0.9393051049504115" transform="matrix(0.7480498892224595,0.6636424965553863,-0.6636424965553863,0.7480498892224595,639.0360691333094,76.75075571881962)" fill="none" stroke="#e48ca3"></use><use xlink:href="#bbburst-shape-12" width="33.848078362762735" opacity="0.16430191507610803" transform="matrix(0.9883618036075769,-0.1521214816177441,0.1521214816177441,0.9883618036075769,197.46713744423943,-347.5310796872514)" fill="none" stroke="#00a19d"></use><use xlink:href="#bbburst-shape-6" width="23.40869606756469" opacity="0.39453025709947676" transform="matrix(0.9122921674623485,0.409539987286773,-0.409539987286773,0.9122921674623485,760.9290291511649,206.52316334938337)" fill="#e48ca3"></use><use xlink:href="#bbburst-shape-4" width="23.873366342952643" opacity="0.7249797146548801" transform="matrix(0.840458132336086,-0.541876487578247,0.541876487578247,0.840458132336086,49.52743851985173,74.08344392476073)" fill="#e48ca3"></use><use xlink:href="#bbburst-shape-14" width="23.589265432371455" opacity="0.5447476553243406" transform="matrix(0.8258745093266476,-0.5638539658852005,0.5638539658852005,0.8258745093266476,184.24817419183873,280.2591548060422)" fill="none" stroke="#e48ca3"></use><use xlink:href="#bbburst-shape-6" width="47.36263883122591" opacity="0.1554697208823289" transform="matrix(0.8046054778242208,-0.5938097549344044,0.5938097549344044,0.8046054778242208,-125.43926080676309,-176.3737142363841)" fill="#ffa6d5"></use><use xlink:href="#bbburst-shape-12" width="11.762183270428654" opacity="0.8606914656415512" transform="matrix(0.8763682565518123,0.4816416498895594,-0.4816416498895594,0.8763682565518123,615.1020268606517,102.89291336886578)" fill="none" stroke="#ffa6d5"></use><use xlink:href="#bbburst-shape-12" width="33.14076015560806" opacity="0.44708772480514636" transform="matrix(0.9880421956149004,-0.1541837205559882,0.1541837205559882,0.9880421956149004,331.53389449563883,-241.3470091647041)" fill="none" stroke="#00a19d"></use><use xlink:href="#bbburst-shape-14" width="37.861149118500734" opacity="0.15549441740729208" transform="matrix(0.8532963299447232,-0.5214262875065527,0.5214262875065527,0.8532963299447232,-97.91655989567911,332.7400894767466)" fill="none" stroke="#e48ca3"></use><use xlink:href="#bbburst-shape-14" width="26.507414601677894" opacity="0.4738855422647801" transform="matrix(0.9942182582493659,0.1073780934995454,-0.1073780934995454,0.9942182582493659,651.8378687334242,-81.15577231521024)" fill="none" stroke="#ffa6d5"></use><use xlink:href="#bbburst-shape-6" width="12.599152104256493" opacity="0.8171635416645244" transform="matrix(0.9903310505281091,0.1387242241279141,-0.1387242241279141,0.9903310505281091,506.9469757948233,61.65025908086824)" fill="#ff8220"></use><use xlink:href="#bbburst-shape-4" width="34.28213506688179" opacity="0.21666300501170188" transform="matrix(0.7765021584966669,-0.6301145910467534,0.6301145910467534,0.7765021584966669,104.95075579684652,451.47129606649406)" fill="#00a19d"></use><use xlink:href="#bbburst-shape-6" width="18.79077791158702" opacity="0.7037719027479049" transform="matrix(0.7500768501459111,-0.6613506776855895,0.6613506776855895,0.7500768501459111,226.09943527655577,196.88520598008955)" fill="#00a19d"></use><use xlink:href="#bbburst-shape-6" width="34.73910750843646" opacity="0.05852048274801924" transform="matrix(0.8559348956220386,0.5170836049001069,-0.5170836049001069,0.8559348956220386,362.3988283593321,-307.433202097893)" fill="#ffa6d5"></use><use xlink:href="#bbburst-shape-6" width="30.190152412734857" opacity="0.35808289472927257" transform="matrix(0.7776017741336384,-0.6287570920985448,0.6287570920985448,0.7776017741336384,68.61443813636339,-182.25897330974834)" fill="#e48ca3"></use><use xlink:href="#bbburst-shape-4" width="34.655611013804055" opacity="0.5016898546641795" transform="matrix(0.9093429475576646,0.4160473575533661,-0.4160473575533661,0.9093429475576646,435.5642680668682,221.53718575629517)" fill="#ffa6d5"></use><use xlink:href="#bbburst-shape-6" width="13.133838353517318" opacity="0.7356875528027029" transform="matrix(0.7786779954187238,-0.6274237638555603,0.6274237638555603,0.7786779954187238,259.1369543740764,122.16603450449054)" fill="#ffa6d5"></use><use xlink:href="#bbburst-shape-6" width="36.69673032011884" opacity="0.2957025260527285" transform="matrix(0.8361103079934339,-0.5485613483167813,0.5485613483167813,0.8361103079934339,463.1883760115304,-32.408794234632296)" fill="#ffa6d5"></use><use xlink:href="#bbburst-shape-14" width="22.028860830803374" opacity="0.7688638873957435" transform="matrix(0.9482005037872152,-0.3176724801075336,0.3176724801075336,0.9482005037872152,208.8735882257719,-64.8760498453741)" fill="none" stroke="#e48ca3"></use><use xlink:href="#bbburst-shape-12" width="19.917955288710896" opacity="0.6931025534766682" transform="matrix(0.9606179547344552,-0.27787253380244703,0.27787253380244703,0.9606179547344552,297.17517088909096,155.4242455042243)" fill="none" stroke="#e48ca3"></use><use xlink:href="#bbburst-shape-6" width="41.885803325954214" opacity="-0.0836443567297811" transform="matrix(0.9044626762403211,-0.42655277198512737,0.42655277198512737,0.9044626762403211,558.5183350186959,-294.36585614357364)" fill="#00a19d"></use><use xlink:href="#bbburst-shape-6" width="25.611008957269195" opacity="0.49727265945051957" transform="matrix(0.857000286673266,0.5153159309025289,-0.5153159309025289,0.857000286673266,548.0981900191706,271.8810343919939)" fill="#ffa6d5"></use><use xlink:href="#bbburst-shape-6" width="22.480509493835932" opacity="0.5599826061633577" transform="matrix(0.993170513653011,0.11667189383143732,-0.11667189383143732,0.993170513653011,584.9032388327815,131.3719229998464)" fill="#00a19d"></use><use xlink:href="#bbburst-shape-12" width="27.03016325317554" opacity="0.15310065747101442" transform="matrix(0.7590708814028312,-0.6510079853629516,0.6510079853629516,0.7590708814028312,5.520794537525433,465.5743492692674)" fill="none" stroke="#e48ca3"></use><use xlink:href="#bbburst-shape-12" width="19.094401018928103" opacity="0.6628519636084449" transform="matrix(0.8364668893556834,-0.5480174659731448,0.5480174659731448,0.8364668893556834,108.48765134283022,208.03315634686362)" fill="none" stroke="#00a19d"></use><use xlink:href="#bbburst-shape-6" width="23.133952263409434" opacity="0.5514615641099629" transform="matrix(0.7998428403815285,-0.6002094890039715,0.6002094890039715,0.7998428403815285,109.6367155259613,-110.62281279207866)" fill="#ffa6d5"></use><use xlink:href="#bbburst-shape-6" width="38.92993377872711" opacity="0.23590195092816746" transform="matrix(0.992338679345796,0.12354734102456981,-0.12354734102456981,0.992338679345796,129.43104356668385,-166.14850835188443)" fill="#00a19d"></use><use xlink:href="#bbburst-shape-12" width="36.20730349141177" opacity="0.04235172227925865" transform="matrix(0.7615484719219744,-0.6481079577611325,0.6481079577611325,0.7615484719219744,-233.47505229035522,-129.20047061873908)" fill="none" stroke="#00a19d"></use><use xlink:href="#bbburst-shape-6" width="14.385274121917542" opacity="0.7745180977198868" transform="matrix(0.990599950954694,-0.13679085191838591,0.13679085191838591,0.990599950954694,438.91649404868326,-7.229996426029857)" fill="#00a19d"></use><use xlink:href="#bbburst-shape-6" width="30.848834924820043" opacity="0.1873741283106194" transform="matrix(0.9958958791796007,-0.09050634139711064,0.09050634139711064,0.9958958791796007,710.6447865756326,-47.24267838383713)" fill="#00a19d"></use><use xlink:href="#bbburst-shape-4" width="30.737493587489332" opacity="0.032635816708199594" transform="matrix(0.9160923964873479,-0.4009672319505273,0.4009672319505273,0.9160923964873479,583.9853119203035,286.77075267387556)" fill="#ffa6d5"></use><use xlink:href="#bbburst-shape-4" width="31.253093267095558" opacity="0.17784372093068668" transform="matrix(0.8623188276799829,-0.5063657170747442,0.5063657170747442,0.8623188276799829,238.63822516622585,428.9221750428267)" fill="#e48ca3"></use><use xlink:href="#bbburst-shape-4" width="38.09244223022088" opacity="0.04558390080939745" transform="matrix(0.8482691695524589,-0.5295653085189603,0.5295653085189603,0.8482691695524589,403.88091280339097,-290.7265436980788)" fill="#ffa6d5"></use><use xlink:href="#bbburst-shape-14" width="11.276103328698127" opacity="0.8981590573695871" transform="matrix(0.925866164240865,-0.3778516189113229,0.3778516189113229,0.925866164240865,282.6641790413273,55.83441533037558)" fill="none" stroke="#ff8220"></use><use xlink:href="#bbburst-shape-4" width="19.207742874022596" opacity="0.8502369425392814" transform="matrix(0.8686457064014048,-0.49543378644416686,0.49543378644416686,0.8686457064014048,139.34946195464408,17.185529807289754)" fill="#ff8220"></use><use xlink:href="#bbburst-shape-6" width="34.01100366793764" opacity="0.17658083910565825" transform="matrix(0.978818634341719,0.2047292872683638,-0.2047292872683638,0.978818634341719,711.8458283053449,-271.57243273931743)" fill="#e48ca3"></use><use xlink:href="#bbburst-shape-12" width="18.72678485929444" opacity="0.7712482078242388" transform="matrix(0.9882186338122498,-0.15304878890814672,0.15304878890814672,0.9882186338122498,265.45886080235493,86.68616744156486)" fill="none" stroke="#e48ca3"></use><use xlink:href="#bbburst-shape-12" width="16.880442452659352" opacity="0.7910284281876273" transform="matrix(0.8003860882161214,-0.599484870359624,0.599484870359624,0.8003860882161214,152.82556946152383,-9.154391034615003)" fill="none" stroke="#ff8220"></use><use xlink:href="#bbburst-shape-14" width="39.21445758969773" opacity="0.11408712123057052" transform="matrix(0.7835812878606526,-0.6212892766776528,0.6212892766776528,0.7835812878606526,401.609796321619,396.2185891538405)" fill="none" stroke="#ff8220"></use><use xlink:href="#bbburst-shape-6" width="30.754241903696354" opacity="0.08335089548611896" transform="matrix(0.97935712106196,0.20213764969750045,-0.20213764969750045,0.97935712106196,801.4371621399584,-234.63046608357757)" fill="#ffa6d5"></use><use xlink:href="#bbburst-shape-14" width="37.796009908148775" opacity="0.3536659008270219" transform="matrix(0.9865896059792916,-0.16322055438463098,0.16322055438463098,0.9865896059792916,34.507378130719914,-64.39324372695643)" fill="none" stroke="#ffa6d5"></use><use xlink:href="#bbburst-shape-6" width="27.63372869226591" opacity="0.07507443639516198" transform="matrix(0.99988953610791,-0.014863229188457904,0.014863229188457904,0.99988953610791,583.9494546581185,363.207684525667)" fill="#ffa6d5"></use><use xlink:href="#bbburst-shape-12" width="16.944181744104846" opacity="0.7060761109899085" transform="matrix(0.7776999299190067,0.6286356806640648,-0.6286356806640648,0.7776999299190067,723.7942845835771,-22.578312021511522)" fill="none" stroke="#00a19d"></use><use xlink:href="#bbburst-shape-4" width="18.51067474407449" opacity="0.6997628423609422" transform="matrix(0.8862168154996,0.4632707155926737,-0.4632707155926737,0.8862168154996,614.6062760281757,-88.55545630260764)" fill="#ff8220"></use><use xlink:href="#bbburst-shape-4" width="32.219763337839375" opacity="0.15976377371315065" transform="matrix(0.9782624047555775,0.20737084520692553,-0.20737084520692553,0.9782624047555775,98.52987689739089,89.40438957269322)" fill="#00a19d"></use><use xlink:href="#bbburst-shape-14" width="42.0224170477849" opacity="-0.08413934974588755" transform="matrix(0.9573744066439965,-0.28884986671808527,0.28884986671808527,0.9573744066439965,-84.64427625894055,364.0628519832949)" fill="none" stroke="#ff8220"></use><use xlink:href="#bbburst-shape-6" width="14.886120640367356" opacity="0.8243560702966133" transform="matrix(0.9855531897502913,0.1693662013892572,-0.1693662013892572,0.9855531897502913,537.0979621707511,23.65945101986665)" fill="#ffa6d5"></use><use xlink:href="#bbburst-shape-12" width="14.644427045260752" opacity="0.8674552576858807" transform="matrix(0.9987078717141593,0.05081915953825214,-0.05081915953825214,0.9987078717141593,395.91913574409125,-57.02396709450983)" fill="none" stroke="#00a19d"></use><use xlink:href="#bbburst-shape-14" width="18.289129244764858" opacity="0.6889799947960003" transform="matrix(0.8157367044187634,-0.5784233994782844,0.5784233994782844,0.8157367044187634,138.75596986074106,-59.135170869420904)" fill="none" stroke="#00a19d"></use><use xlink:href="#bbburst-shape-6" width="22.471974621147908" opacity="0.4089197542780755" transform="matrix(0.9859878634292157,-0.1668170649852413,0.1668170649852413,0.9859878634292157,586.4454262648102,-22.85436993542237)" fill="#ffa6d5"></use><use xlink:href="#bbburst-shape-14" width="33.70983476642934" opacity="0.2968875825323877" transform="matrix(0.8696638317580776,-0.4936444264162799,0.4936444264162799,0.8696638317580776,17.576124906092474,-206.14553036355062)" fill="none" stroke="#ff8220"></use><use xlink:href="#bbburst-shape-4" width="32.246083589268665" opacity="0.259712144503387" transform="matrix(0.7833962553962519,0.621522571618385,-0.621522571618385,0.7833962553962519,784.6943545369218,-221.43929878964053)" fill="#00a19d"></use><use xlink:href="#bbburst-shape-14" width="20.289510026457933" opacity="0.5816747454454188" transform="matrix(0.8788892595667598,0.47702585822803445,-0.47702585822803445,0.8788892595667598,717.3804753164592,-87.04848187595138)" fill="none" stroke="#ffa6d5"></use><use xlink:href="#bbburst-shape-14" width="31.48171494248292" opacity="0.49853023158866594" transform="matrix(0.7488208959919042,-0.6627724086938757,0.6627724086938757,0.7488208959919042,-35.74366064099047,-49.318514142250194)" fill="none" stroke="#00a19d"></use><use xlink:href="#bbburst-shape-12" width="27.519963220672352" opacity="0.2928945941074771" transform="matrix(0.9706595389681806,0.24045802005772046,-0.24045802005772046,0.9706595389681806,521.1906226144984,-307.49867418762756)" fill="none" stroke="#ff8220"></use><use xlink:href="#bbburst-shape-6" width="24.308698392501604" opacity="0.18918153234957513" transform="matrix(0.8700358865744083,0.4929883934462183,-0.4929883934462183,0.8700358865744083,563.1830382205476,-318.1208444286512)" fill="#00a19d"></use><use xlink:href="#bbburst-shape-14" width="27.539274594303002" opacity="0.5857776256365677" transform="matrix(0.760106224150392,-0.6497988365700835,0.6497988365700835,0.760106224150392,159.44928728883747,-79.06748968361526)" fill="none" stroke="#e48ca3"></use><use xlink:href="#bbburst-shape-14" width="29.665831086856574" opacity="0.17559287372556542" transform="matrix(0.7842301130214389,0.6204700877805321,-0.6204700877805321,0.7842301130214389,1002.516525679532,137.8233883880228)" fill="none" stroke="#ff8220"></use><use xlink:href="#bbburst-shape-12" width="21.64679784752058" opacity="0.806510857515581" transform="matrix(0.9497433176504941,0.31302975989230253,-0.31302975989230253,0.9497433176504941,435.57280833686144,52.47271304514999)" fill="none" stroke="#ffa6d5"></use><use xlink:href="#bbburst-shape-12" width="32.347247682722646" opacity="0.2666311243447844" transform="matrix(0.9951026482263183,-0.09884694984150043,0.09884694984150043,0.9951026482263183,34.470343660357244,116.98206552417406)" fill="none" stroke="#ff8220"></use><use xlink:href="#bbburst-shape-14" width="32.49699712344399" opacity="0.47510604880288065" transform="matrix(0.8127394669207304,0.5826272898769908,-0.5826272898769908,0.8127394669207304,852.8021234821148,104.33988995047724)" fill="none" stroke="#ffa6d5"></use><use xlink:href="#bbburst-shape-4" width="31.752722748228404" opacity="0.4211372855340466" transform="matrix(0.9980253072094389,0.06281310507772322,-0.06281310507772322,0.9980253072094389,498.92867802875827,244.39641387581293)" fill="#ffa6d5"></use><use xlink:href="#bbburst-shape-14" width="18.225531244900665" opacity="0.7667037542495391" transform="matrix(0.9990272320399879,0.04409750154510074,-0.04409750154510074,0.9990272320399879,385.99931901702774,102.548110256325)" fill="none" stroke="#ffa6d5"></use><use xlink:href="#bbburst-shape-6" width="28.39543530524181" opacity="0.15256971574696687" transform="matrix(0.976024969507824,0.2176585833300657,-0.2176585833300657,0.976024969507824,109.25376821735456,-107.34937288067397)" fill="#ffa6d5"></use><use xlink:href="#bbburst-shape-12" width="11.504311425586648" opacity="0.8764540043429617" transform="matrix(0.8790892259560436,0.47665724877316645,-0.47665724877316645,0.8790892259560436,641.2105652911939,45.985147600814116)" fill="none" stroke="#ffa6d5"></use><use xlink:href="#bbburst-shape-14" width="17.30247962551474" opacity="0.6322418736876894" transform="matrix(0.9677425079831938,-0.2519413388914136,0.2519413388914136,0.9677425079831938,386.6884521935567,150.02627263197513)" fill="none" stroke="#ffa6d5"></use><use xlink:href="#bbburst-shape-4" width="13.275677814049223" opacity="0.8133461304284981" transform="matrix(0.9194680926184372,0.3931646304750885,-0.3931646304750885,0.9194680926184372,585.805955938097,-46.900882397885994)" fill="#ffa6d5"></use><use xlink:href="#bbburst-shape-14" width="12.440826337553936" opacity="0.8635626897638492" transform="matrix(0.8171022226234316,-0.5764928080937767,0.5764928080937767,0.8171022226234316,125.09461585159934,123.98344451964948)" fill="none" stroke="#ff8220"></use><use xlink:href="#bbburst-shape-12" width="12.319202786224734" opacity="0.820279391196395" transform="matrix(0.8331122198440843,-0.5531039948747994,0.5531039948747994,0.8331122198440843,249.16023330494448,41.273426688152426)" fill="none" stroke="#ffa6d5"></use><use xlink:href="#bbburst-shape-6" width="13.66082435474248" opacity="0.8644543527580714" transform="matrix(0.9450138149823252,0.3270304106540424,-0.3270304106540424,0.9450138149823252,515.3626454099198,80.08957247125807)" fill="#ffa6d5"></use><use xlink:href="#bbburst-shape-14" width="32.238368235414356" opacity="0.4756406937094624" transform="matrix(0.9858895872004066,0.16739689916426673,-0.16739689916426673,0.9858895872004066,340.8713887413975,-205.66509090917077)" fill="none" stroke="#00a19d"></use><use xlink:href="#bbburst-shape-6" width="42.91117069772486" opacity="0.20821075196475625" transform="matrix(0.8445627203421612,-0.5354566382147563,0.5354566382147563,0.8445627203421612,-188.3035121718539,58.93295381260248)" fill="#ffa6d5"></use><use xlink:href="#bbburst-shape-4" width="21.293779699647466" opacity="0.7000074854169116" transform="matrix(0.9128630898817008,-0.4082658192056174,0.4082658192056174,0.9128630898817008,107.11733660164552,101.31961923112004)" fill="#ffa6d5"></use><use xlink:href="#bbburst-shape-4" width="23.51171412882234" opacity="0.5112610606907094" transform="matrix(0.8869625861437186,-0.46184128310627076,0.46184128310627076,0.8869625861437186,401.56098955143136,149.01797549040492)" fill="#00a19d"></use><use xlink:href="#bbburst-shape-4" width="17.084178215611434" opacity="0.7245349919780224" transform="matrix(0.7385569268518681,-0.674191119638285,0.674191119638285,0.7385569268518681,226.32170325002005,40.338324980237076)" fill="#ff8220"></use><use xlink:href="#bbburst-shape-14" width="17.969071951069992" opacity="0.7990031701907198" transform="matrix(0.9820713936848078,0.18850935707804867,-0.18850935707804867,0.9820713936848078,483.89228865613217,94.27705956235366)" fill="none" stroke="#ff8220"></use><use xlink:href="#bbburst-shape-6" width="26.944780161950526" opacity="0.3553301329310188" transform="matrix(0.868002854065568,0.4965592062725534,-0.4965592062725534,0.868002854065568,362.4413375258224,-137.6403697772741)" fill="#ffa6d5"></use><use xlink:href="#bbburst-shape-4" width="23.891114947947308" opacity="0.6406474081260178" transform="matrix(0.9771847227077168,0.2123911902754975,-0.2123911902754975,0.9771847227077168,386.80896633643295,-130.03775295436424)" fill="#ffa6d5"></use><use xlink:href="#bbburst-shape-4" width="33.08980959465708" opacity="0.38122649078353144" transform="matrix(0.7217200687212812,-0.6921850492498007,0.6921850492498007,0.7217200687212812,128.75190167411824,400.6805381228013)" fill="#ffa6d5"></use><use xlink:href="#bbburst-shape-12" width="32.86764460328806" opacity="0.45663235567018357" transform="matrix(0.867234578014158,-0.4978997757547249,0.4978997757547249,0.867234578014158,-39.57501455445987,154.25012097854415)" fill="none" stroke="#00a19d"></use><use xlink:href="#bbburst-shape-12" width="41.07207170491628" opacity="0.22546593039933271" transform="matrix(0.9495572644771191,-0.3135936885186477,0.3135936885186477,0.9495572644771191,370.3008761166919,355.4765959242867)" fill="none" stroke="#ffa6d5"></use><use xlink:href="#bbburst-shape-6" width="35.60248048478306" opacity="0.3954792303281911" transform="matrix(0.9785958563010964,-0.20579152079306864,0.20579152079306864,0.9785958563010964,109.90355344541612,206.55984276728793)" fill="#ff8220"></use><use xlink:href="#bbburst-shape-14" width="36.26292591630944" opacity="0.1536633279518843" transform="matrix(0.974735261698311,-0.2233633130169885,0.2233633130169885,0.974735261698311,643.9660358988685,162.07268068336083)" fill="none" stroke="#00a19d"></use><use xlink:href="#bbburst-shape-12" width="23.40511209588948" opacity="0.6369985196338007" transform="matrix(0.9847444873000124,-0.17400659393320633,0.17400659393320633,0.9847444873000124,159.72854020732564,-28.764153581816345)" fill="none" stroke="#ff8220"></use><use xlink:href="#bbburst-shape-14" width="37.790987889807646" opacity="0.3926507835482821" transform="matrix(0.7346290700605108,-0.6784689598073218,0.6784689598073218,0.7346290700605108,283.7051597223397,-95.83431337021005)" fill="none" stroke="#00a19d"></use><use xlink:href="#bbburst-shape-12" width="21.735132562885298" opacity="0.6002471668559143" transform="matrix(0.994086971500859,-0.10858679980665356,0.10858679980665356,0.994086971500859,170.6941906740409,44.89141004910789)" fill="none" stroke="#ffa6d5"></use><use xlink:href="#bbburst-shape-14" width="33.72967829817636" opacity="-0.09348005765510892" transform="matrix(0.8233688583557112,0.5675065841820806,-0.5675065841820806,0.8233688583557112,955.2940565261185,414.70907174817654)" fill="none" stroke="#ffa6d5"></use><use xlink:href="#bbburst-shape-12" width="20.491681542476556" opacity="0.5885973586357124" transform="matrix(0.9954161863053355,-0.09563794247756348,0.09563794247756348,0.9954161863053355,417.99454058892076,175.57017412728635)" fill="none" stroke="#ffa6d5"></use><use xlink:href="#bbburst-shape-14" width="33.50338678863567" opacity="0.31311365672985836" transform="matrix(0.9780447964074517,0.20839476053947795,-0.20839476053947795,0.9780447964074517,775.0839477545795,29.92285795861693)" fill="none" stroke="#00a19d"></use><use xlink:href="#bbburst-shape-12" width="29.279419002412407" opacity="0.4881093540908942" transform="matrix(0.9979719315432859,0.0636555092019785,-0.0636555092019785,0.9979719315432859,201.4514087300498,-96.14962893292704)" fill="none" stroke="#00a19d"></use><use xlink:href="#bbburst-shape-6" width="43.87707113353934" opacity="-0.08911052983178536" transform="matrix(0.993171996075698,0.11665927400345812,-0.11665927400345812,0.993171996075698,79.8075703193033,-347.8596780374921)" fill="#00a19d"></use><use xlink:href="#bbburst-shape-12" width="12.21897298846334" opacity="0.9075986583903144" transform="matrix(0.9199242266766134,0.3920961835741771,-0.3920961835741771,0.9199242266766134,565.2193803430035,-9.541128789377353)" fill="none" stroke="#00a19d"></use><use xlink:href="#bbburst-shape-6" width="26.952909606245257" opacity="0.29691585413978117" transform="matrix(0.8054913533220928,-0.5926075258747087,0.5926075258747087,0.8054913533220928,-112.74940222544706,258.865116349121)" fill="#ff8220"></use><use xlink:href="#bbburst-shape-14" width="25.220809107700745" opacity="0.6071125603197176" transform="matrix(0.986305479252865,-0.16492877734275566,0.16492877734275566,0.986305479252865,494.30368349629225,45.409272982697416)" fill="none" stroke="#00a19d"></use><use xlink:href="#bbburst-shape-14" width="36.638872782619025" opacity="0.3054665619481127" transform="matrix(0.9656343786547362,-0.25990430308111784,0.25990430308111784,0.9656343786547362,531.5531188480534,-164.67990699442308)" fill="none" stroke="#00a19d"></use><use xlink:href="#bbburst-shape-14" width="34.48229759227914" opacity="0.3530017359010813" transform="matrix(0.7576632185853629,0.6526457287095876,-0.6526457287095876,0.7576632185853629,917.9213015355084,194.7653767850543)" fill="none" stroke="#ff8220"></use><use xlink:href="#bbburst-shape-6" width="29.82664298891313" opacity="0.5526765306275649" transform="matrix(0.9584555664059244,0.28524187495088904,-0.28524187495088904,0.9584555664059244,338.5838759270977,132.89769183194)" fill="#ffa6d5"></use><use xlink:href="#bbburst-shape-6" width="15.209351954693648" opacity="0.8240621335503782" transform="matrix(0.9691812505874834,-0.2463487436738448,0.2463487436738448,0.9691812505874834,352.17309860064984,-39.60032357198264)" fill="#ffa6d5"></use><use xlink:href="#bbburst-shape-14" width="31.997272708399738" opacity="0.2931800672289189" transform="matrix(0.9805296019954914,0.1963713309283284,-0.1963713309283284,0.9805296019954914,642.3274583257315,267.28505592017643)" fill="none" stroke="#00a19d"></use><use xlink:href="#bbburst-shape-14" width="16.355094807247013" opacity="0.6931717988217571" transform="matrix(0.9766696300039158,0.21474737210968167,-0.21474737210968167,0.9766696300039158,610.6855087519522,-30.271233360253404)" fill="none" stroke="#ffa6d5"></use><use xlink:href="#bbburst-shape-14" width="23.300969860512968" opacity="0.15117979829063977" transform="matrix(0.9698855046802022,-0.24356130195749376,0.24356130195749376,0.9698855046802022,398.0301651486013,-351.83600793560197)" fill="none" stroke="#00a19d"></use><use xlink:href="#bbburst-shape-14" width="26.196892542997148" opacity="0.5668043071554649" transform="matrix(0.9906136483951947,0.1366916223225166,-0.1366916223225166,0.9906136483951947,537.9803618040465,-167.50077647951682)" fill="none" stroke="#e48ca3"></use><use xlink:href="#bbburst-shape-4" width="36.94877523250979" opacity="0.04918203525655185" transform="matrix(0.7098849680333716,-0.7043176358435581,0.7043176358435581,0.7098849680333716,-130.7729666737376,486.00807182234206)" fill="#00a19d"></use><use xlink:href="#bbburst-shape-6" width="30.758895827797886" opacity="0.11498613547097314" transform="matrix(0.8542129815447465,-0.5199232464128092,0.5199232464128092,0.8542129815447465,542.7910746335364,-95.51159092817193)" fill="#ffa6d5"></use><use xlink:href="#bbburst-shape-6" width="42.66472060469694" opacity="0.07403740913467216" transform="matrix(0.856114275598105,0.5167865585685563,-0.5167865585685563,0.856114275598105,229.7885075325487,258.628878518696)" fill="#00a19d"></use><use xlink:href="#bbburst-shape-14" width="19.037357767965027" opacity="0.7441170287815413" transform="matrix(0.9806983889977381,0.19552664733289207,-0.19552664733289207,0.9806983889977381,370.0147364895552,-53.16117049881598)" fill="none" stroke="#e48ca3"></use></svg>